HIERARCHY
ROOT Hips
{
	OFFSET -0.001795 -0.223333 0.028219
	CHANNELS 6 Xposition Yposition Zposition Zrotation Yrotation Xrotation 
	JOINT LeftUpLeg
	{
		OFFSET 0.069520 -0.091406 -0.006815
		CHANNELS 3 Zrotation Yrotation Xrotation
		JOINT LeftLeg
		{
			OFFSET 0.034277 -0.375199 -0.004496
			CHANNELS 3 Zrotation Yrotation Xrotation
			JOINT LeftFoot
			{
				OFFSET -0.013596 -0.397961 -0.043693
				CHANNELS 3 Zrotation Yrotation Xrotation
				JOINT LeftToe
				{
					OFFSET 0.026358 -0.055791 0.119288
					CHANNELS 3 Zrotation Yrotation Xrotation
					End Site
					{
						OFFSET 0.000000 0.000000 0.000000
					}
				}
			}
		}
	}
	JOINT RightUpLeg
	{
		OFFSET -0.067670 -0.090522 -0.004320
		CHANNELS 3 Zrotation Yrotation Xrotation
		JOINT RightLeg
		{
			OFFSET -0.038290 -0.382569 -0.008850
			CHANNELS 3 Zrotation Yrotation Xrotation
			JOINT RightFoot
			{
				OFFSET 0.015774 -0.398415 -0.042312
				CHANNELS 3 Zrotation Yrotation Xrotation
				JOINT RightToe
				{
					OFFSET -0.025372 -0.048144 0.123348
					CHANNELS 3 Zrotation Yrotation Xrotation
					End Site
					{
						OFFSET 0.000000 0.000000 0.000000
					}
				}
			}
		}
	}
	JOINT Spine
	{
		OFFSET -0.002533 0.108963 -0.026696
		CHANNELS 3 Zrotation Yrotation Xrotation
		JOINT Spine1
		{
			OFFSET 0.005487 0.135180 0.001092
			CHANNELS 3 Zrotation Yrotation Xrotation
			JOINT Spine2
			{
				OFFSET 0.001457 0.052922 0.025425
				CHANNELS 3 Zrotation Yrotation Xrotation
				JOINT Neck
				{
					OFFSET -0.002778 0.213870 -0.042857
					CHANNELS 3 Zrotation Yrotation Xrotation
					JOINT Head
					{
						OFFSET 0.005152 0.064970 0.051349
						CHANNELS 3 Zrotation Yrotation Xrotation
						End Site
						{
							OFFSET 0.000000 0.000000 0.000000
						}
					}
				}
				JOINT LeftShoulder
				{
					OFFSET 0.078845 0.121749 -0.034090
					CHANNELS 3 Zrotation Yrotation Xrotation
					JOINT LeftArm
					{
						OFFSET 0.090977 0.030469 -0.008868
						CHANNELS 3 Zrotation Yrotation Xrotation
						JOINT LeftForeArm
						{
							OFFSET 0.259612 -0.012772 -0.027456
							CHANNELS 3 Zrotation Yrotation Xrotation
							JOINT LeftHand
							{
								OFFSET 0.249234 0.008986 -0.001171
								CHANNELS 3 Zrotation Yrotation Xrotation
								End Site
								{
									OFFSET 0.000000 0.000000 0.000000
								}
							}
						}
					}
				}
				JOINT RightShoulder
				{
					OFFSET -0.081759 0.118833 -0.038615
					CHANNELS 3 Zrotation Yrotation Xrotation
					JOINT RightArm
					{
						OFFSET -0.096012 0.032551 -0.009143
						CHANNELS 3 Zrotation Yrotation Xrotation
						JOINT RightForeArm
						{
							OFFSET -0.253742 -0.013329 -0.021401
							CHANNELS 3 Zrotation Yrotation Xrotation
							JOINT RightHand
							{
								OFFSET -0.255298 0.007772 -0.005559
								CHANNELS 3 Zrotation Yrotation Xrotation
								End Site
								{
									OFFSET 0.000000 0.000000 0.000000
								}
							}
						}
					}
				}
			}
		}
	}
}
MOTION
Frames: 15
Frame Time: 0.050000
-1.070068 0.903763 1.891383 179.175302 23.102914 177.308870 1.349371 -8.321647 -25.336199 -22.662877 -17.722201 26.615292 59.482230 -30.582596 46.340600 0.000000 0.000000 0.000000 -3.215401 -9.237696 8.808202 -31.821436 -30.861534 45.434195 49.214516 4.976930 15.281432 0.000000 0.000000 0.000000 -13.518250 -7.730901 20.740148 -7.794271 -12.750725 -2.010922 16.140671 28.874191 17.862267 -7.203882 -13.507266 -27.914746 0.000000 0.000000 0.000000 -10.530010 -29.889449 -73.072072 -37.922051 47.164936 -6.382683 -16.902021 -24.859900 0.426685 0.000000 0.000000 0.000000 9.218924 1.669702 69.557971 -5.434163 74.370388 -6.117984 -24.132295 5.679537 -3.346298 0.000000 0.000000 0.000000 
-1.065825 0.904586 1.848776 179.576046 20.262381 176.283785 -1.097351 -6.249840 -22.227625 -23.284373 -19.249811 29.576562 64.245030 -31.721284 42.106898 0.000000 0.000000 0.000000 -3.940777 -8.924627 1.426532 -77.896511 -29.115330 80.221677 72.210117 -0.882301 46.587123 0.000000 0.000000 0.000000 -15.029719 -9.470035 23.056982 -6.960862 -12.175598 -3.499449 16.384917 28.464114 19.582484 -6.218435 -14.523140 -29.289059 0.000000 0.000000 0.000000 -8.656823 -32.593404 -76.979700 -36.900296 48.876920 -5.066006 -18.716285 -25.317317 1.068667 0.000000 0.000000 0.000000 8.602704 -0.436831 74.045191 -23.423009 75.299467 -20.580557 -23.615440 4.122207 -3.075670 0.000000 0.000000 0.000000 
-1.059937 0.908541 1.810063 -179.205696 16.559375 176.381035 -2.937673 -3.868043 -17.988083 -17.325693 -17.855607 27.994249 73.029251 -34.155738 29.619179 0.000000 0.000000 0.000000 -2.273630 -8.915688 -6.361075 -106.640211 -17.180170 92.484265 91.581636 -48.784415 73.239390 0.000000 0.000000 0.000000 -15.511449 -11.239701 25.341678 -6.526494 -12.120098 -4.207999 16.349421 27.334607 19.830669 -5.990106 -16.117312 -29.735841 0.000000 0.000000 0.000000 -6.727256 -32.826775 -80.635827 -36.497848 48.546305 -4.561529 -20.724688 -26.318074 1.837594 0.000000 0.000000 0.000000 5.373718 -0.690230 79.671165 -49.677181 75.980544 -40.322661 -23.713076 -0.033805 -2.339382 0.000000 0.000000 0.000000 
-1.052641 0.915276 1.772525 -177.774017 13.074352 176.301586 -2.686050 -2.434864 -13.274957 -12.892331 -15.951877 24.961048 78.981814 -34.431328 18.937503 0.000000 0.000000 0.000000 0.598700 -9.644668 -13.079849 -111.631024 -15.351183 92.672341 169.821054 49.138926 123.816784 0.000000 0.000000 0.000000 -16.875823 -13.565246 28.291297 -5.353316 -11.491297 -5.652289 17.218521 27.068304 21.348062 -5.870166 -18.426685 -30.986397 0.000000 0.000000 0.000000 -2.962520 -33.712996 -86.082214 -36.197449 49.496252 -4.652122 -23.634470 -27.889341 2.687729 0.000000 0.000000 0.000000 2.664735 -1.969265 87.949624 -73.651615 69.519615 -54.635355 -23.259277 -4.225255 -1.673681 0.000000 0.000000 0.000000 
-1.044459 0.922691 1.734908 -176.749275 10.390169 176.902685 -2.387923 -2.071639 -9.556474 -8.655901 -13.610136 21.817782 81.778711 -34.053490 11.062003 0.000000 0.000000 0.000000 4.284064 -11.144653 -19.450669 -78.174403 -28.931229 78.355559 -89.810138 60.815576 -126.170168 0.000000 0.000000 0.000000 -17.291616 -14.792087 29.702585 -5.862203 -13.118689 -4.598340 17.961930 28.874944 21.330114 -6.007726 -20.315357 -31.235852 0.000000 0.000000 0.000000 1.087061 -34.612890 -89.564627 -36.754378 48.780010 -5.595510 -28.083000 -30.679202 4.075078 0.000000 0.000000 0.000000 0.681158 -2.188846 94.737411 -85.264077 62.926981 -58.207199 -23.617846 -8.042403 -1.312260 0.000000 0.000000 0.000000 
-1.035972 0.926715 1.696963 -175.825370 6.388479 176.791444 -1.273918 -2.685916 -7.090276 -8.309704 -13.795487 22.085855 82.373178 -33.853099 7.492079 0.000000 0.000000 0.000000 7.985257 -12.682668 -23.998428 -30.693607 -29.663208 42.994408 -168.209303 -39.333414 -36.424834 0.000000 0.000000 0.000000 -19.463692 -17.828310 32.955354 -7.659171 -14.388709 -3.974150 21.548834 32.304493 22.963062 -4.106558 -22.267992 -32.270005 0.000000 0.000000 0.000000 8.102500 -34.943309 -102.847046 -31.329666 55.608166 -4.481770 -33.736874 -31.115083 5.079978 0.000000 0.000000 0.000000 -8.432086 -2.778514 113.517400 -98.829373 44.279682 -44.701513 -20.183220 -19.609116 -0.518428 0.000000 0.000000 0.000000 
-1.027562 0.926404 1.657681 -175.652896 3.113480 177.584868 -1.163606 -3.023000 -6.258961 -7.775155 -14.558230 23.464144 84.546864 -34.159445 4.558431 0.000000 0.000000 0.000000 10.869594 -14.928724 -27.893148 -11.203505 -19.209186 22.816772 83.952875 -21.790919 6.848363 0.000000 0.000000 0.000000 -19.329408 -18.735594 33.928173 -8.414587 -15.952793 -3.660126 22.654228 33.031885 23.743415 -4.366087 -25.385696 -33.786755 0.000000 0.000000 0.000000 14.975707 -36.264049 -114.366973 -21.361740 61.528842 0.497968 -38.676211 -30.264589 5.284877 0.000000 0.000000 0.000000 -16.215566 0.877197 134.787684 -102.488081 21.072945 -19.438260 -8.792372 -29.446658 -3.251289 0.000000 0.000000 0.000000 
-1.019508 0.921810 1.615789 -176.160368 -0.074169 177.730537 -2.543961 5.739007 -7.412261 27.869746 26.294232 33.781914 -155.743613 29.255767 -29.242051 0.000000 0.000000 0.000000 -1.202789 11.515608 -26.515658 12.134475 14.209046 11.047620 -43.053168 49.930097 50.859173 0.000000 0.000000 0.000000 10.634284 21.420727 37.651764 21.872408 23.133538 -7.446723 -28.277350 -49.833496 24.467804 -1.630352 -23.390839 -35.182608 0.000000 0.000000 0.000000 17.928299 -37.653031 -116.473043 -18.621006 62.166423 -3.903543 -44.212169 -27.617330 2.798526 0.000000 0.000000 0.000000 -21.773120 7.421242 155.864706 -102.474797 -3.906353 14.635254 12.450168 -29.326791 -10.093609 0.000000 0.000000 0.000000 
-1.012683 0.914892 1.571005 -176.712904 -2.596773 177.237191 -2.559792 6.098941 -9.020802 42.353519 30.851581 45.936299 -137.599663 42.407601 -13.889701 0.000000 0.000000 0.000000 -0.390901 11.663578 -27.232174 11.890161 13.992269 15.648150 -38.861826 56.505676 62.304104 0.000000 0.000000 0.000000 13.616181 22.385511 40.097774 22.340562 22.820439 -8.397930 -31.505136 -50.872374 26.619076 2.554778 21.100799 -33.054599 0.000000 0.000000 0.000000 16.663862 -39.479631 -107.656206 -31.568046 57.358904 -22.577022 -44.652109 -24.193241 2.355598 0.000000 0.000000 0.000000 -23.601122 11.921258 167.371972 -99.534342 -21.286103 40.446836 24.283935 -18.291768 -12.486913 0.000000 0.000000 0.000000 
-1.008305 0.904463 1.525367 -177.027719 -5.831605 177.675824 -2.298164 9.808961 -15.577467 72.668088 30.970484 67.062975 -86.831736 48.727840 35.763659 0.000000 0.000000 0.000000 -2.268238 14.186254 -30.444931 20.468980 18.796753 25.419912 -30.887696 63.186375 81.568849 0.000000 0.000000 0.000000 16.705711 22.553491 42.074930 23.629128 23.243926 -7.845733 -33.145888 -51.318041 24.526758 2.854650 20.321654 -31.664540 0.000000 0.000000 0.000000 20.391481 -34.872289 -140.116411 38.865819 66.457485 20.500056 -51.950643 2.749256 -12.469249 0.000000 0.000000 0.000000 -26.138891 26.198157 -153.862959 -83.861843 -64.104959 68.548498 27.346734 2.719658 -6.902348 0.000000 0.000000 0.000000 
-1.005941 0.894037 1.481560 -177.017016 -7.953241 177.354749 -3.742642 17.015799 -24.689490 106.067821 22.043736 79.118713 -58.114801 46.739083 73.360568 0.000000 0.000000 0.000000 -1.774674 13.104773 -29.574710 26.726334 21.763596 30.649170 -16.853938 70.888534 104.390883 0.000000 0.000000 0.000000 21.151929 23.710585 45.044100 25.093771 23.061743 -7.238690 -36.171887 -53.587982 24.448200 1.425504 18.215114 -30.856250 0.000000 0.000000 0.000000 18.564134 -22.312668 178.361527 83.041439 32.757033 25.063435 -35.254978 34.807460 -22.906859 0.000000 0.000000 0.000000 -22.675133 37.544950 -126.348641 12.902779 -74.282425 -2.850565 18.945957 12.926053 -3.818024 0.000000 0.000000 0.000000 
-1.006337 0.884749 1.441488 -177.701848 -10.247827 178.385114 -10.512992 23.335106 -35.774352 118.981994 18.649593 75.309429 -58.251216 54.404601 91.760986 0.000000 0.000000 0.000000 -2.820011 12.880637 -29.512734 32.065842 23.319129 34.135439 11.733581 72.689401 140.363267 0.000000 0.000000 0.000000 26.026792 24.852800 48.496962 22.146886 19.373631 -10.830058 -35.785225 -52.408428 25.303221 1.616103 15.184493 -32.613350 0.000000 0.000000 0.000000 7.909545 -14.226776 144.954066 87.070077 -1.626292 -7.630466 3.570637 42.650496 -8.518821 0.000000 0.000000 0.000000 -18.233063 44.180966 -106.671275 42.379740 -55.130723 -16.787289 9.907455 14.760496 -3.264300 0.000000 0.000000 0.000000 
-1.009661 0.881566 1.404700 -178.120091 -10.194428 179.666192 -16.117096 26.595295 -42.519030 103.133556 21.056938 68.163908 -82.786782 70.611333 79.353446 0.000000 0.000000 0.000000 -2.539752 12.158011 -28.532768 33.314552 23.871925 35.359763 39.775076 72.835412 173.222963 0.000000 0.000000 0.000000 29.419416 26.195294 51.639990 23.321172 19.985153 -9.759985 -39.464731 -54.714620 26.360918 1.902444 14.860777 -32.772750 0.000000 0.000000 0.000000 1.155068 -13.770298 127.023874 83.882707 -17.584288 -22.809574 14.465757 31.982984 -2.942568 0.000000 0.000000 0.000000 -15.222742 47.424455 -97.731364 45.628075 -44.240899 -12.088839 5.210971 14.055491 -3.133963 0.000000 0.000000 0.000000 
-1.015222 0.882577 1.370481 -178.314656 -10.291455 -177.720428 -23.823775 28.200032 -49.550090 66.568786 21.548718 49.843854 -104.615970 35.371985 41.593251 0.000000 0.000000 0.000000 -4.278368 12.942010 -29.131060 36.367730 24.600671 34.866615 42.809098 69.598085 177.583141 0.000000 0.000000 0.000000 31.878853 26.984729 53.764134 20.901600 17.508615 -10.604268 -37.504604 -54.234058 25.207673 2.698009 14.361906 -33.727304 0.000000 0.000000 0.000000 -1.116561 -14.758756 118.361874 80.856343 -25.208480 -28.158213 18.096329 27.178556 -1.817324 0.000000 0.000000 0.000000 -13.985404 49.455442 -92.472547 47.156032 -37.083791 -8.802082 3.483241 13.153510 -2.867418 0.000000 0.000000 0.000000 
-1.022695 0.886087 1.338537 -178.189317 -10.080655 -175.411044 -29.477149 28.729207 -54.027209 47.401010 17.324569 36.504591 -82.498637 12.741557 35.687395 0.000000 0.000000 0.000000 -4.675317 13.247519 -29.301772 36.583174 24.682992 34.331608 42.429018 69.407408 176.877698 0.000000 0.000000 0.000000 33.408081 27.753994 55.565011 22.320572 18.366924 -9.602674 -40.185699 -56.140532 26.793954 2.154283 11.912407 -36.404621 0.000000 0.000000 0.000000 0.316294 -16.418657 116.477220 81.019576 -25.392691 -26.932373 12.989836 27.560766 -2.243758 0.000000 0.000000 0.000000 -13.520704 51.648753 -88.311233 47.669260 -30.118010 -5.615707 1.568512 11.798901 -2.721931 0.000000 0.000000 0.000000 
